<svg viewBox="0 0 512 512" version="1.1" xmlns="http://www.w3.org/2000/svg" width="512" height="512">
<path d="M0 0 C2.798 2.299 5.34 4.797 7.882 7.374 C8.609 8.095 9.336 8.816 10.085 9.558 C12.496 11.953 14.892 14.362 17.288 16.771 C19.023 18.5 20.758 20.228 22.495 21.956 C26.705 26.15 30.906 30.353 35.102 34.561 C38.515 37.983 41.932 41.401 45.351 44.816 C45.84 45.304 46.328 45.791 46.831 46.293 C47.823 47.284 48.814 48.275 49.806 49.265 C59.09 58.538 68.362 67.823 77.63 77.112 C85.568 85.068 93.517 93.014 101.474 100.953 C110.732 110.189 119.983 119.431 129.223 128.684 C130.21 129.672 131.197 130.661 132.184 131.649 C132.669 132.135 133.155 132.621 133.655 133.122 C137.064 136.534 140.477 139.941 143.892 143.346 C148.494 147.937 153.086 152.538 157.671 157.146 C159.352 158.832 161.036 160.514 162.724 162.193 C165.034 164.492 167.331 166.804 169.626 169.118 C170.291 169.774 170.955 170.429 171.639 171.105 C180.715 180.332 185.907 190.86 186.438 203.875 C185.994 218.757 178.912 229.569 168.664 239.724 C167.947 240.446 167.231 241.168 166.492 241.912 C164.109 244.309 161.715 246.696 159.321 249.083 C157.602 250.808 155.883 252.533 154.165 254.259 C149.994 258.447 145.815 262.628 141.633 266.805 C138.231 270.202 134.833 273.602 131.436 277.004 C130.951 277.49 130.467 277.975 129.967 278.476 C128.982 279.462 127.997 280.449 127.012 281.435 C117.79 290.671 108.559 299.897 99.325 309.119 C90.89 317.544 82.467 325.98 74.049 334.422 C65.389 343.106 56.722 351.783 48.047 360.452 C43.183 365.312 38.322 370.175 33.468 375.046 C28.904 379.627 24.33 384.196 19.748 388.759 C18.072 390.432 16.399 392.108 14.729 393.788 C12.443 396.087 10.145 398.374 7.844 400.657 C7.192 401.319 6.541 401.98 5.869 402.661 C-3.356 411.743 -13.939 416.784 -26.938 417.438 C-39.124 416.988 -50.93 411.571 -59.312 402.812 C-68.668 391.639 -70.15 379.043 -69 365 C-65.404 347.389 -48.254 334.1 -36.059 321.926 C-34.723 320.589 -33.387 319.253 -32.052 317.916 C-29.269 315.132 -26.484 312.349 -23.698 309.568 C-20.146 306.021 -16.598 302.47 -13.051 298.917 C-10.3 296.162 -7.546 293.41 -4.792 290.658 C-3.483 289.35 -2.175 288.041 -0.868 286.731 C10.58 275.268 10.58 275.268 14.953 271.549 C21.522 265.949 27.475 259.646 33.562 253.535 C34.963 252.132 36.364 250.73 37.766 249.328 C41.431 245.659 45.092 241.987 48.754 238.315 C52.499 234.559 56.248 230.806 59.996 227.053 C67.334 219.705 74.668 212.353 82 205 C80.383 200.928 77.475 198.219 74.409 195.209 C73.832 194.634 73.254 194.059 72.659 193.467 C70.722 191.54 68.777 189.621 66.833 187.701 C65.443 186.322 64.053 184.941 62.664 183.561 C59.67 180.587 56.673 177.615 53.674 174.646 C48.927 169.945 44.189 165.234 39.454 160.521 C25.986 147.12 12.509 133.726 -0.988 120.354 C-8.441 112.971 -15.884 105.576 -23.314 98.169 C-27.244 94.252 -31.18 90.342 -35.129 86.444 C-38.849 82.773 -42.554 79.089 -46.249 75.393 C-47.602 74.045 -48.96 72.701 -50.324 71.364 C-60.521 61.357 -68.931 51.827 -69.292 36.806 C-69.405 23.533 -66.472 12.987 -57.188 3.062 C-40.529 -12.521 -18.368 -12.334 0 0 Z " fill="currentColor" transform="translate(198,52)"/>
</svg>
